<svg xmlns="http://www.w3.org/2000/svg" width="18" height="18" viewBox="0 0 18 18" fill="none">
    <g opacity="0.3">
        <path d="M9 2.25C5.27775 2.25 2.25 5.2785 2.25 9H3.75C3.75 6.105 6.10575 3.75 9 3.75C10.6388 3.75 12.0939 4.5126 13.0562 5.69385L11.25 7.5H15.75V3L14.1255 4.62451C12.8886 3.17375 11.0523 2.25 9 2.25ZM14.25 9C14.25 11.8942 11.8942 14.25 9 14.25C7.36118 14.25 5.90609 13.4874 4.94385 12.3062L6.75 10.5H2.25V15L3.87451 13.3755C5.11137 14.8262 6.94766 15.75 9 15.75C12.7222 15.75 15.75 12.7222 15.75 9H14.25Z" fill="#5B6373"/>
    </g>
</svg>